<svg width="24" height="24" viewBox="0 0 24 24" fill="none" xmlns="http://www.w3.org/2000/svg">
<path d="M6.92301 17.577C6.64687 17.577 6.42301 17.3531 6.42301 17.077V9.46197C6.42301 8.61797 6.72068 7.90064 7.31601 7.30997C7.91068 6.71864 8.62601 6.42297 9.46201 6.42297H11C11.2762 6.42297 11.5 6.64683 11.5 6.92297V11C11.5 11.2761 11.2762 11.5 11 11.5H10.308C10.0319 11.5 9.80801 11.7238 9.80801 12C9.80801 12.2761 10.0319 12.5 10.308 12.5H11C11.2762 12.5 11.5 12.7238 11.5 13V17.077C11.5 17.3531 11.2762 17.577 11 17.577H6.92301ZM13 17.577C12.7239 17.577 12.5 17.3531 12.5 17.077V13C12.5 12.7238 12.7239 12.5 13 12.5H13.692C13.9682 12.5 14.192 12.2761 14.192 12C14.192 11.7238 13.9682 11.5 13.692 11.5H13C12.7239 11.5 12.5 11.2761 12.5 11V6.92297C12.5 6.64683 12.7239 6.42297 13 6.42297H14.538C15.382 6.42297 16.0993 6.71864 16.69 7.30997C17.2813 7.90064 17.577 8.61797 17.577 9.46197V17.077C17.577 17.3531 17.3532 17.577 17.077 17.577H13ZM4.38501 17.577C4.10887 17.577 3.88501 17.3531 3.88501 17.077V9.96197C3.88501 9.68583 4.10887 9.46197 4.38501 9.46197C4.66115 9.46197 4.88501 9.68583 4.88501 9.96197V17.077C4.88501 17.3531 4.66115 17.577 4.38501 17.577ZM19.615 17.577C19.3389 17.577 19.115 17.3531 19.115 17.077V9.96197C19.115 9.68583 19.3389 9.46197 19.615 9.46197C19.8912 9.46197 20.115 9.68583 20.115 9.96197V17.077C20.115 17.3531 19.8912 17.577 19.615 17.577Z" fill="white"/>
</svg>
