<svg width="20" height="20" viewBox="0 0 20 20" fill="none" xmlns="http://www.w3.org/2000/svg">
<g clip-path="url(#clip0_8857_35817)">
<path d="M10 2C8.41775 2 6.87104 2.46919 5.55544 3.34824C4.23985 4.22729 3.21447 5.47672 2.60897 6.93853C2.00347 8.40034 1.84504 10.0089 2.15372 11.5607C2.4624 13.1126 3.22433 14.538 4.34315 15.6569C5.46197 16.7757 6.88743 17.5376 8.43928 17.8463C9.99113 18.155 11.5997 17.9965 13.0615 17.391C14.5233 16.7855 15.7727 15.7602 16.6518 14.4446C17.5308 13.129 18 11.5822 18 10C18 8.94942 17.7931 7.90914 17.391 6.93853C16.989 5.96793 16.3997 5.08601 15.6569 4.34315C14.914 3.60028 14.0321 3.011 13.0615 2.60896C12.0909 2.20693 11.0506 2 10 2ZM10 16.4C8.7342 16.4 7.49683 16.0246 6.44435 15.3214C5.39188 14.6182 4.57158 13.6186 4.08717 12.4492C3.60277 11.2797 3.47603 9.9929 3.72298 8.75142C3.96992 7.50994 4.57946 6.36957 5.47452 5.47452C6.36958 4.57946 7.50995 3.96992 8.75143 3.72297C9.9929 3.47603 11.2797 3.60277 12.4492 4.08717C13.6186 4.57157 14.6182 5.39188 15.3214 6.44435C16.0246 7.49682 16.4 8.7342 16.4 10C16.4 11.6974 15.7257 13.3253 14.5255 14.5255C13.3253 15.7257 11.6974 16.4 10 16.4Z" fill="#16A75C"/>
<path d="M10.0002 7.6C10.442 7.6 10.8002 7.24183 10.8002 6.8C10.8002 6.35817 10.442 6 10.0002 6C9.55837 6 9.2002 6.35817 9.2002 6.8C9.2002 7.24183 9.55837 7.6 10.0002 7.6Z" fill="#16A75C"/>
<path d="M10.0002 8.40002C9.78802 8.40002 9.58454 8.48431 9.43451 8.63434C9.28448 8.78437 9.2002 8.98785 9.2002 9.20002V13.2C9.2002 13.4122 9.28448 13.6157 9.43451 13.7657C9.58454 13.9157 9.78802 14 10.0002 14C10.2124 14 10.4159 13.9157 10.5659 13.7657C10.7159 13.6157 10.8002 13.4122 10.8002 13.2V9.20002C10.8002 8.98785 10.7159 8.78437 10.5659 8.63434C10.4159 8.48431 10.2124 8.40002 10.0002 8.40002Z" fill="#16A75C"/>
</g>
<defs>
<clipPath id="clip0_8857_35817">
<rect width="16" height="16" fill="white" transform="translate(2 2)"/>
</clipPath>
</defs>
</svg>
