<svg width="20" height="21" viewBox="0 0 20 21" fill="none" xmlns="http://www.w3.org/2000/svg">
<path d="M11.6667 6.67653V5.00987C11.6667 4.56784 11.4911 4.14392 11.1785 3.83136C10.866 3.5188 10.442 3.3432 10 3.3432H4.16667C3.72464 3.3432 3.30072 3.5188 2.98816 3.83136C2.67559 4.14392 2.5 4.56784 2.5 5.00987V15.0099C2.5 15.4519 2.67559 15.8758 2.98816 16.1884C3.30072 16.5009 3.72464 16.6765 4.16667 16.6765H10C10.442 16.6765 10.866 16.5009 11.1785 16.1884C11.4911 15.8758 11.6667 15.4519 11.6667 15.0099V13.3432" stroke="white" stroke-width="2" stroke-linecap="round" stroke-linejoin="round"/>
<path d="M7.5 10.0099H17.5M17.5 10.0099L15 7.50989M17.5 10.0099L15 12.5099" stroke="white" stroke-width="2" stroke-linecap="round" stroke-linejoin="round"/>
</svg>
