<svg width="14" height="14" viewBox="0 0 14 14" fill="none" xmlns="http://www.w3.org/2000/svg">
<g clip-path="url(#clip0_2277_1339)">
<path d="M6.55038 12.598C3.23955 7.79825 2.625 7.30566 2.625 5.54169C2.625 3.12543 4.58375 1.16669 7 1.16669C9.41625 1.16669 11.375 3.12543 11.375 5.54169C11.375 7.30566 10.7604 7.79825 7.44962 12.598C7.23235 12.9118 6.76762 12.9118 6.55038 12.598ZM7 7.3646C8.00677 7.3646 8.82292 6.54846 8.82292 5.54169C8.82292 4.53491 8.00677 3.71877 7 3.71877C5.99323 3.71877 5.17708 4.53491 5.17708 5.54169C5.17708 6.54846 5.99323 7.3646 7 7.3646Z" fill="#E53935"/>
</g>
<defs>
<clipPath id="clip0_2277_1339">
<rect width="8.75" height="11.6667" fill="white" transform="translate(2.625 1.16669)"/>
</clipPath>
</defs>
</svg>
