<svg width="16" height="16" viewBox="0 0 16 16" fill="none" xmlns="http://www.w3.org/2000/svg">
<path d="M4.16667 3.16671C3.90145 3.16671 3.6471 3.27206 3.45956 3.4596C3.27203 3.64714 3.16667 3.90149 3.16667 4.16671V11.8334C3.16667 12.0986 3.27203 12.3529 3.45956 12.5405C3.6471 12.728 3.90145 12.8334 4.16667 12.8334H11.8333C12.0986 12.8334 12.3529 12.728 12.5404 12.5405C12.728 12.3529 12.8333 12.0986 12.8333 11.8334V9.16671C12.8333 8.9899 12.9036 8.82033 13.0286 8.6953C13.1536 8.57028 13.3232 8.50004 13.5 8.50004C13.6768 8.50004 13.8464 8.57028 13.9714 8.6953C14.0964 8.82033 14.1667 8.9899 14.1667 9.16671V11.8334C14.1667 12.4522 13.9208 13.0457 13.4833 13.4833C13.0457 13.9209 12.4522 14.1667 11.8333 14.1667H4.16667C3.54783 14.1667 2.95434 13.9209 2.51675 13.4833C2.07917 13.0457 1.83334 12.4522 1.83334 11.8334V4.16671C1.83334 3.54787 2.07917 2.95438 2.51675 2.51679C2.95434 2.07921 3.54783 1.83337 4.16667 1.83337H6.83334C7.01015 1.83337 7.17972 1.90361 7.30474 2.02864C7.42976 2.15366 7.5 2.32323 7.5 2.50004C7.5 2.67685 7.42976 2.84642 7.30474 2.97145C7.17972 3.09647 7.01015 3.16671 6.83334 3.16671H4.16667ZM8.5 2.50004C8.5 2.32323 8.57024 2.15366 8.69526 2.02864C8.82029 1.90361 8.98986 1.83337 9.16667 1.83337H13.5C13.6768 1.83337 13.8464 1.90361 13.9714 2.02864C14.0964 2.15366 14.1667 2.32323 14.1667 2.50004V6.83337C14.1667 7.01019 14.0964 7.17975 13.9714 7.30478C13.8464 7.4298 13.6768 7.50004 13.5 7.50004C13.3232 7.50004 13.1536 7.4298 13.0286 7.30478C12.9036 7.17975 12.8333 7.01019 12.8333 6.83337V4.10937L9.638 7.30471C9.5765 7.36838 9.50294 7.41917 9.42161 7.45411C9.34027 7.48905 9.25279 7.50744 9.16427 7.50821C9.07575 7.50898 8.98796 7.49211 8.90603 7.45859C8.8241 7.42507 8.74967 7.37557 8.68707 7.31297C8.62448 7.25038 8.57498 7.17594 8.54146 7.09401C8.50793 7.01208 8.49107 6.92429 8.49184 6.83577C8.4926 6.74725 8.511 6.65977 8.54593 6.57844C8.58087 6.4971 8.63166 6.42354 8.69534 6.36204L11.8907 3.16671H9.16667C8.98986 3.16671 8.82029 3.09647 8.69526 2.97145C8.57024 2.84642 8.5 2.67685 8.5 2.50004Z" fill="#16A75C"/>
</svg>
