<svg width="26" height="26" viewBox="0 0 26 26" fill="none" xmlns="http://www.w3.org/2000/svg">
<path d="M3.25 7.58333V5.41667C3.25 4.84203 3.47827 4.29093 3.8846 3.8846C4.29093 3.47827 4.84203 3.25 5.41667 3.25H7.58333M18.4167 3.25H20.5833C21.158 3.25 21.7091 3.47827 22.1154 3.8846C22.5217 4.29093 22.75 4.84203 22.75 5.41667V7.58333M22.75 18.4167V20.5833C22.75 21.158 22.5217 21.7091 22.1154 22.1154C21.7091 22.5217 21.158 22.75 20.5833 22.75H18.4167M7.58333 22.75H5.41667C4.84203 22.75 4.29093 22.5217 3.8846 22.1154C3.47827 21.7091 3.25 21.158 3.25 20.5833V18.4167M7.58333 13H18.4167" stroke="white" stroke-width="3" stroke-linecap="round" stroke-linejoin="round"/>
</svg>
