<svg width="32" height="32" viewBox="0 0 32 32" fill="none" xmlns="http://www.w3.org/2000/svg">
<path d="M10.6186 12.6107C13.2505 12.6107 15.384 10.4771 15.384 7.8453C15.384 5.21347 13.2505 3.07994 10.6186 3.07994C7.9868 3.07994 5.85327 5.21347 5.85327 7.8453C5.85327 10.4771 7.9868 12.6107 10.6186 12.6107Z" stroke="#424242" stroke-width="2.17381" stroke-linecap="round" stroke-linejoin="round"/>
<path d="M16.01 14.8438C14.5801 13.414 12.6408 12.6107 10.6186 12.6107C8.59643 12.6107 6.65709 13.414 5.22721 14.8438C3.79732 16.2737 2.99402 18.2131 2.99402 20.2352" stroke="#424242" stroke-width="2.17381" stroke-linecap="round" stroke-linejoin="round"/>
<path d="M28.2715 18.7837C28.5214 18.9258 28.729 19.132 28.8728 19.3809C29.0166 19.6299 29.0914 19.9127 29.0896 20.2002V25.4972C29.0896 26.0855 28.7675 26.628 28.2475 26.9138L23.3389 30.0189C23.0956 30.1525 22.8224 30.2226 22.5448 30.2226C22.2672 30.2226 21.9941 30.1525 21.7507 30.0189L16.8421 26.9138C16.5877 26.7747 16.3753 26.5699 16.2272 26.3207C16.079 26.0715 16.0006 25.7871 16 25.4972V20.1995C16 19.6112 16.3221 19.0694 16.8421 18.7837L21.7507 15.8894C22.0013 15.7513 22.2827 15.6788 22.5688 15.6788C22.8549 15.6788 23.1364 15.7513 23.3869 15.8894L28.2955 18.7837H28.2715Z" stroke="#424242" stroke-width="2" stroke-linecap="round" stroke-linejoin="round"/>
<path d="M20.368 22.9505C20.368 23.5278 20.5974 24.0815 21.0056 24.4898C21.4139 24.898 21.9675 25.1273 22.5449 25.1273C23.1222 25.1273 23.6759 24.898 24.0841 24.4898C24.4923 24.0815 24.7217 23.5278 24.7217 22.9505C24.7217 22.3732 24.4923 21.8195 24.0841 21.4113C23.6759 21.003 23.1222 20.7737 22.5449 20.7737C21.9675 20.7737 21.4139 21.003 21.0056 21.4113C20.5974 21.8195 20.368 22.3732 20.368 22.9505Z" stroke="#424242" stroke-width="2" stroke-linecap="round" stroke-linejoin="round"/>
</svg>
