<svg width="32" height="32" viewBox="0 0 32 32" fill="none" xmlns="http://www.w3.org/2000/svg">
<path d="M26.0671 29H5.00562C4.47518 29 3.96647 28.7893 3.5914 28.4142C3.21633 28.0391 3.00562 27.5304 3.00562 27V8.03271C3.00562 7.50228 3.21633 6.99357 3.5914 6.6185C3.96647 6.24343 4.47518 6.03271 5.00562 6.03271H12.9666M26.0671 29C25.5366 29 25.2266 29 23.0181 29C20.8096 29 21.0002 25.5273 21.0002 24.9968V20.0327M26.0671 29C26.5975 29 27.1062 28.7893 27.4813 28.4142C27.8563 28.0391 28.0671 27.5304 28.0671 27V22.0327C28.0671 21.5022 27.8563 20.9935 27.4813 20.6185C27.1062 20.2434 26.5975 20.0327 26.0671 20.0327H21.0002M21.0002 20.0327V16.9559" stroke="#424242" stroke-width="2" stroke-linecap="round" stroke-linejoin="round"/>
<path d="M6.99072 17.0211H14.0098" stroke="#424242" stroke-width="2" stroke-linecap="round"/>
<path d="M6.99072 13.0223H9.93311" stroke="#424242" stroke-width="2" stroke-linecap="round"/>
<path d="M6.99072 21.0377H11.9839" stroke="#424242" stroke-width="2" stroke-linecap="round"/>
<path d="M17.0541 5.91992C17.0541 4.26307 18.3973 2.91992 20.0541 2.91992H24.0541C25.711 2.91992 27.0541 4.26307 27.0541 5.91992V9.91992C27.0541 11.5768 25.711 12.9199 24.0541 12.9199H17.0541V5.91992Z" stroke="#424242" stroke-width="2"/>
<path d="M20.2847 7.91992L21.4644 9.09961L23.8237 6.74023" stroke="#424242" stroke-width="2" stroke-linecap="round" stroke-linejoin="round"/>
</svg>
