<svg width="32" height="32" viewBox="0 0 32 32" fill="none" xmlns="http://www.w3.org/2000/svg">
<g clip-path="url(#clip0_1860_9582)">
<path d="M17.2051 25.2368C17.2051 26.7014 17.7869 28.106 18.8225 29.1416C19.8581 30.1772 21.2627 30.759 22.7273 30.759C24.1918 30.759 25.5964 30.1772 26.632 29.1416C27.6677 28.106 28.2495 26.7014 28.2495 25.2368C28.2495 23.7722 27.6677 22.3676 26.632 21.332C25.5964 20.2964 24.1918 19.7146 22.7273 19.7146C21.2627 19.7146 19.8581 20.2964 18.8225 21.332C17.7869 22.3676 17.2051 23.7722 17.2051 25.2368Z" stroke="#424242" stroke-width="2" stroke-linecap="round" stroke-linejoin="round"/>
<path d="M22.7273 23.1604V25.2367L24.1078 26.6173" stroke="#424242" stroke-width="2" stroke-linecap="round" stroke-linejoin="round"/>
<g clip-path="url(#clip1_1860_9582)">
<path d="M14.3042 28.0171L13.0654 28.726C11.6145 29.5563 9.76549 29.057 8.92969 27.6094L8.39858 26.6895C7.82284 25.6923 7.92077 24.4505 8.13252 23.3187C8.27381 22.5634 8.25114 21.6512 7.7413 20.7681C7.22957 19.8818 6.4463 19.4045 5.71845 19.1485C4.63496 18.7674 3.51501 18.2309 2.94073 17.2362L2.41662 16.3284C1.57855 14.8768 2.0759 13.0207 3.52749 12.1826L18.9303 3.2898C20.3819 2.45173 22.238 2.94908 23.0761 4.40067L23.6406 5.37843C24.1923 6.33397 24.1323 7.51615 23.9285 8.60053C23.7825 9.37776 23.7926 10.3241 24.304 11.2098C24.8111 12.088 25.6142 12.5661 26.353 12.8261C27.4003 13.1946 28.4642 13.7331 29.0193 14.6946L29.9758 16.3514C30.5919 17.4184 30.2052 18.7835 29.1211 19.369V19.369" stroke="#424242" stroke-width="2" stroke-linecap="round"/>
<line x1="14.9874" y1="6.98642" x2="20.2628" y2="16.2135" stroke="#424242" stroke-width="2" stroke-linecap="round" stroke-dasharray="3 3"/>
</g>
</g>
<defs>
<clipPath id="clip0_1860_9582">
<rect width="32" height="32" fill="white"/>
</clipPath>
<clipPath id="clip1_1860_9582">
<rect width="26.8272" height="21.4617" fill="white" transform="translate(-0.981949 13.4136) rotate(-30)"/>
</clipPath>
</defs>
</svg>
