<svg width="18" height="30" viewBox="0 0 18 30" fill="none" xmlns="http://www.w3.org/2000/svg">
<path d="M5.25265 3.02592C5.08701 2.86027 4.86235 2.76722 4.62809 2.76722C4.39384 2.76722 4.16918 2.86027 4.00353 3.02592C3.83789 3.19156 3.74483 3.41622 3.74483 3.65048C3.74483 3.88473 3.83789 4.10939 4.00353 4.27504L4.83628 5.10779C5.00192 5.27343 5.22658 5.36649 5.46084 5.36649C5.69509 5.36649 5.91975 5.27343 6.0854 5.10778C6.25104 4.94214 6.3441 4.71748 6.3441 4.48322C6.3441 4.24897 6.25104 4.02431 6.0854 3.85866L5.25265 3.02592ZM9.00001 0.0613394C8.76595 0.0614846 8.54151 0.154531 8.376 0.320041C8.21049 0.485549 8.11744 0.709988 8.1173 0.944052L8.1173 4.27504C8.11312 4.39358 8.13285 4.51175 8.17533 4.6225C8.2178 4.73324 8.28215 4.8343 8.36453 4.91964C8.44691 5.00498 8.54564 5.07285 8.65482 5.11921C8.764 5.16557 8.8814 5.18946 9.00001 5.18946C9.11863 5.18946 9.23603 5.16557 9.34521 5.11921C9.45439 5.07285 9.55311 5.00498 9.63549 4.91964C9.71787 4.8343 9.78222 4.73324 9.8247 4.6225C9.86717 4.51175 9.88691 4.39358 9.88272 4.27504V0.944051C9.88258 0.709987 9.78953 0.48555 9.62402 0.320041C9.45851 0.154532 9.23408 0.0614855 9.00001 0.0613394ZM9.88272 23.4282L9.88272 20.93C9.88691 20.8114 9.86717 20.6933 9.8247 20.5825C9.78222 20.4718 9.71787 20.3707 9.63549 20.2854C9.55311 20.2 9.45439 20.1322 9.34521 20.0858C9.23603 20.0394 9.11863 20.0156 9.00001 20.0156C8.8814 20.0156 8.764 20.0394 8.65482 20.0858C8.54564 20.1322 8.44691 20.2 8.36453 20.2854C8.28215 20.3707 8.2178 20.4718 8.17533 20.5825C8.13285 20.6933 8.11312 20.8114 8.1173 20.93L8.1173 23.4282C8.11312 23.5468 8.13285 23.6649 8.17533 23.7757C8.2178 23.8864 8.28215 23.9875 8.36453 24.0728C8.44691 24.1582 8.54564 24.226 8.65482 24.2724C8.764 24.3187 8.8814 24.3426 9.00001 24.3426C9.11863 24.3426 9.23603 24.3187 9.34521 24.2724C9.45439 24.226 9.55311 24.1582 9.63549 24.0728C9.71787 23.9875 9.78222 23.8864 9.8247 23.7757C9.86717 23.6649 9.88691 23.5468 9.88272 23.4282ZM0.880731 14.0598L4.78631 17.9654L4.78548 26.6584C4.78548 27.0064 4.85402 27.351 4.98718 27.6725C5.12034 27.994 5.31553 28.2861 5.56158 28.5321C5.80764 28.7782 6.09975 28.9734 6.42124 29.1065C6.74273 29.2397 7.0873 29.3082 7.43528 29.3082L10.5656 29.3074C10.9136 29.3074 11.2581 29.2389 11.5796 29.1057C11.9011 28.9725 12.1932 28.7774 12.4393 28.5313C12.6853 28.2852 12.8805 27.9931 13.0137 27.6716C13.1468 27.3502 13.2154 27.0056 13.2154 26.6576L13.2154 17.9637L17.1193 14.0598C17.2847 13.8941 17.3776 13.6694 17.3774 13.4353L17.3783 10.205C17.3783 9.85705 17.3097 9.51248 17.1766 9.19099C17.0434 8.8695 16.8482 8.57739 16.6022 8.33133C16.3561 8.08528 16.064 7.89009 15.7425 7.75693C15.421 7.62376 15.0765 7.55523 14.7285 7.55523L3.27071 7.55606C2.56823 7.55628 1.89458 7.83543 1.39785 8.33216C0.90112 8.82889 0.621964 9.50254 0.621748 10.205L0.621747 13.4361C0.621601 13.6703 0.714456 13.8949 0.879898 14.0606L0.880731 14.0598ZM2.38884 10.205C2.38898 9.97096 2.48203 9.74653 2.64754 9.58102C2.81305 9.41551 3.03748 9.32246 3.27155 9.32232L14.7285 9.32232C14.9625 9.32246 15.187 9.41551 15.3525 9.58102C15.518 9.74653 15.611 9.97096 15.6112 10.205L15.6112 12.5534L2.388 12.5525L2.38884 10.205ZM3.63796 14.3188L14.3629 14.318L11.9646 16.7163H6.03543L3.63796 14.3188ZM6.55174 18.4817L11.4483 18.4817L11.4475 26.6584C11.4473 26.8925 11.3543 27.1169 11.1888 27.2824C11.0232 27.448 10.7988 27.541 10.5647 27.5412L7.43445 27.542C7.20038 27.5418 6.97595 27.4488 6.81044 27.2833C6.64493 27.1178 6.55188 26.8933 6.55174 26.6593L6.55174 18.4817ZM13.1637 5.10779L13.9965 4.27504C14.1621 4.10939 14.2552 3.88473 14.2552 3.65048C14.2552 3.41622 14.1621 3.19156 13.9965 3.02592C13.8308 2.86027 13.6062 2.76722 13.3719 2.76722C13.1377 2.76722 12.913 2.86027 12.7474 3.02592L11.9146 3.85867C11.749 4.02431 11.6559 4.24897 11.6559 4.48323C11.6559 4.71748 11.749 4.94214 11.9146 5.10778C12.0803 5.27343 12.3049 5.36649 12.5392 5.36649C12.7734 5.36649 12.9981 5.27343 13.1637 5.10779Z" fill="white"/>
</svg>
