<svg width="46" height="46" viewBox="0 0 46 46" fill="none" xmlns="http://www.w3.org/2000/svg">
<g clip-path="url(#clip0_8856_315809)">
<rect y="0.00109863" width="46" height="46" rx="23" fill="#292C2A"/>
<rect x="11.1558" y="32.3262" width="23.8443" height="32.0542" rx="11.9221" fill="#FF4D77"/>
<path d="M19.414 32.9658C19.414 32.9658 21.6395 32.3614 23.0515 32.3614C24.4635 32.3614 26.6453 33.0351 26.6453 33.0351L26.6453 34.7702C26.6453 36.7671 25.0266 38.3859 23.0297 38.3859C21.0328 38.3859 19.414 36.7671 19.414 34.7702L19.414 32.9658Z" fill="#EC305D"/>
<rect x="20.9325" y="29.2942" width="4.29099" height="7.47961" rx="2.1455" fill="#FEBB9E"/>
<rect x="20.9325" y="27.0374" width="4.29099" height="6.06385" rx="2.1455" fill="#FBA079"/>
<rect x="11.0002" y="20.735" width="23.8443" height="8.55921" rx="4.2796" fill="#44403F"/>
<circle cx="28.457" cy="30.0693" r="3.03192" fill="#44403F"/>
<circle cx="17.5978" cy="30.0693" r="3.03192" fill="#44403F"/>
<rect x="13.1883" y="7.78198" width="19.7792" height="23.0622" rx="9.88958" fill="#44403F"/>
<rect x="15.2738" y="10.3235" width="15.5072" height="21.4971" rx="7.75358" fill="#FEBB9E"/>
<path fill-rule="evenodd" clip-rule="evenodd" d="M17.6634 17.9832C21.3435 17.9832 24.3267 14.9999 24.3267 11.3198C24.3267 10.0212 23.9552 8.80934 23.3127 7.78472C23.2346 7.7829 23.1564 7.78198 23.0779 7.78198C18.0688 7.78198 13.9295 11.506 13.2776 16.3364C14.4495 17.3618 15.9839 17.9832 17.6634 17.9832Z" fill="#44403F"/>
<path d="M19.9892 26.4551C19.9892 26.8678 20.0705 27.2764 20.2284 27.6577C20.3863 28.039 20.6178 28.3854 20.9096 28.6772C21.2015 28.969 21.5479 29.2005 21.9292 29.3584C22.3104 29.5164 22.7191 29.5977 23.1318 29.5977C23.5445 29.5977 23.9531 29.5164 24.3344 29.3584C24.7157 29.2005 25.0621 28.969 25.3539 28.6772C25.6457 28.3854 25.8772 28.039 26.0352 27.6577C26.1931 27.2764 26.2744 26.8678 26.2744 26.4551L23.1318 26.4551L19.9892 26.4551Z" fill="white"/>
<path fill-rule="evenodd" clip-rule="evenodd" d="M31.1311 17.3411C28.6566 19.0185 25.1836 19.3029 22.0649 17.7994C18.1766 15.9248 16.8953 13.1477 17.7037 9.47763C18.9069 8.59768 20.4344 8.05239 21.4947 7.91883C26.9137 7.23621 30.271 10.5133 30.9536 15.9323L31.1311 17.3411Z" fill="#37312F"/>
<path fill-rule="evenodd" clip-rule="evenodd" d="M32.9676 19.0914C30.3029 20.4464 26.8215 20.2946 23.9151 18.413C20.2917 16.0672 18.7555 11.8053 20.0162 8.26507C20.9803 7.95149 22.0093 7.78198 23.078 7.78198C28.5399 7.78198 32.9676 12.2097 32.9676 17.6716V19.0914Z" fill="#44403F"/>
</g>
<defs>
<clipPath id="clip0_8856_315809">
<rect y="0.00109863" width="46" height="46" rx="23" fill="white"/>
</clipPath>
</defs>
</svg>
