<svg width="66" height="65" viewBox="0 0 66 65" fill="none" xmlns="http://www.w3.org/2000/svg">
<g clip-path="url(#clip0_1928_9937)">
<rect x="0.997314" width="64.0054" height="64.0054" rx="32.0027" fill="#292C2A"/>
<rect x="16.3524" y="45.1163" width="33.2827" height="43.452" rx="16.6413" fill="#FFA600"/>
<path d="M28.0042 45.8694C28.0042 45.8694 31.1007 45.0284 33.0654 45.0284C35.0301 45.0284 38.0659 45.9658 38.0659 45.9658L38.0659 48.38C38.0659 51.1585 35.8135 53.4109 33.0351 53.4109C30.2566 53.4109 28.0042 51.1585 28.0042 48.38L28.0042 45.8694Z" fill="#FF7500"/>
<ellipse cx="20.4278" cy="30.3216" rx="2.62467" ry="3.4113" transform="rotate(-33.6589 20.4278 30.3216)" fill="#F99E77"/>
<ellipse cx="45.5595" cy="30.3218" rx="2.62467" ry="3.4113" transform="rotate(33.66 45.5595 30.3218)" fill="#F99E77"/>
<rect x="30.1458" y="40.8843" width="5.98951" height="9.72038" rx="2.99476" fill="#F6B396"/>
<rect x="30.1458" y="37.7339" width="5.98951" height="8.46413" rx="2.99476" fill="#EA9976"/>
<rect x="22.3179" y="14.4043" width="21.6454" height="30.0063" rx="10.8227" fill="#F6B396"/>
<path d="M28.7542 36.4978C28.7542 37.0738 28.8676 37.6442 29.0881 38.1764C29.3085 38.7086 29.6316 39.1922 30.039 39.5995C30.4463 40.0068 30.9299 40.3299 31.462 40.5504C31.9942 40.7708 32.5647 40.8843 33.1407 40.8843C33.7167 40.8843 34.2872 40.7708 34.8193 40.5504C35.3515 40.3299 35.8351 40.0068 36.2424 39.5995C36.6498 39.1922 36.9729 38.7086 37.1933 38.1764C37.4138 37.6442 37.5272 37.0738 37.5272 36.4978L33.1407 36.4978L28.7542 36.4978Z" fill="white"/>
<rect x="43.9634" y="20.1404" width="1.89019" height="9.91132" rx="0.945094" fill="#44403F"/>
<circle cx="28.0013" cy="17.9662" r="8.39985" fill="#44403F"/>
<path fill-rule="evenodd" clip-rule="evenodd" d="M38.6544 25.0756H32.5751C29.7914 25.0756 27.3623 22.849 27.3623 20.0652V18.7432C27.3623 18.2604 27.3623 17.615 27.3623 17.1107C27.3623 13.6567 30.1623 10.8567 33.6163 10.8567C35.3011 10.8567 36.8303 11.523 37.9548 12.6063C38.1845 12.5808 38.4179 12.5676 38.6544 12.5676C42.1084 12.5676 44.9084 15.3676 44.9084 18.8216C44.9084 22.2099 42.2139 24.9688 38.8508 25.0725V25.0756H38.6544Z" fill="#37312F"/>
<path fill-rule="evenodd" clip-rule="evenodd" d="M41.2771 25.0756H35.1978C32.414 25.0756 30.1573 22.8189 30.1573 20.0351V18.5749C30.0447 18.1052 29.985 17.615 29.985 17.1107C29.985 13.6567 32.785 10.8567 36.239 10.8567C37.9238 10.8567 39.453 11.523 40.5775 12.6063C40.8072 12.5808 41.0406 12.5676 41.2771 12.5676C44.7311 12.5676 47.5311 15.3676 47.5311 18.8216C47.5311 22.2099 44.8366 24.9688 41.4734 25.0725V25.0756H41.2771Z" fill="#44403F"/>
<rect x="20.4279" y="20.1404" width="1.89019" height="9.91132" rx="0.945094" fill="#44403F"/>
</g>
<defs>
<clipPath id="clip0_1928_9937">
<rect x="0.997314" width="64.0054" height="64.0054" rx="32.0027" fill="white"/>
</clipPath>
</defs>
</svg>
