<svg width="66" height="65" viewBox="0 0 66 65" fill="none" xmlns="http://www.w3.org/2000/svg">
<g clip-path="url(#clip0_1928_10188)">
<rect x="0.997314" width="64.0054" height="64.0054" rx="32.0027" fill="#FAFAFA"/>
<rect x="16.3525" y="45.1163" width="33.2827" height="43.452" rx="16.6413" fill="#FFA600"/>
<path d="M28.0043 45.8694C28.0043 45.8694 31.1009 45.0284 33.0655 45.0284C35.0302 45.0284 38.0661 45.9658 38.0661 45.9658L38.0661 48.38C38.0661 51.1585 35.8137 53.4109 33.0352 53.4109C30.2567 53.4109 28.0043 51.1585 28.0043 48.38L28.0043 45.8694Z" fill="#FF7500"/>
<ellipse cx="20.4279" cy="30.3216" rx="2.62467" ry="3.4113" transform="rotate(-33.6589 20.4279 30.3216)" fill="#F99E77"/>
<ellipse cx="45.5596" cy="30.3218" rx="2.62467" ry="3.4113" transform="rotate(33.66 45.5596 30.3218)" fill="#F99E77"/>
<rect x="30.1459" y="40.8843" width="5.98951" height="9.72038" rx="2.99476" fill="#F6B396"/>
<rect x="30.1459" y="37.734" width="5.98951" height="8.46413" rx="2.99476" fill="#EA9976"/>
<rect x="22.318" y="14.4043" width="21.6454" height="30.0063" rx="10.8227" fill="#F6B396"/>
<path d="M28.7543 36.4978C28.7543 37.0738 28.8678 37.6442 29.0882 38.1764C29.3086 38.7086 29.6318 39.1922 30.0391 39.5995C30.4464 40.0068 30.93 40.3299 31.4622 40.5504C31.9944 40.7708 32.5648 40.8843 33.1408 40.8843C33.7169 40.8843 34.2873 40.7708 34.8195 40.5504C35.3517 40.3299 35.8352 40.0068 36.2426 39.5995C36.6499 39.1922 36.973 38.7086 37.1934 38.1764C37.4139 37.6442 37.5273 37.0738 37.5273 36.4978L33.1408 36.4978L28.7543 36.4978Z" fill="white"/>
<rect x="43.9635" y="20.1404" width="1.89019" height="9.91132" rx="0.945094" fill="#44403F"/>
<circle cx="28.0014" cy="17.9663" r="8.39985" fill="#44403F"/>
<path fill-rule="evenodd" clip-rule="evenodd" d="M38.6547 25.0756H32.5754C29.7916 25.0756 27.3625 22.8491 27.3625 20.0653V18.7433C27.3625 18.2605 27.3625 17.615 27.3625 17.1108C27.3625 13.6568 30.1625 10.8568 33.6165 10.8568C35.3013 10.8568 36.8305 11.523 37.9551 12.6064C38.1847 12.5808 38.4182 12.5677 38.6547 12.5677C42.1086 12.5677 44.9086 15.3677 44.9086 18.8217C44.9086 22.21 42.2141 24.9689 38.851 25.0726V25.0756H38.6547Z" fill="#37312F"/>
<path fill-rule="evenodd" clip-rule="evenodd" d="M41.2772 25.0756H35.1979C32.4142 25.0756 30.1574 22.8189 30.1574 20.0351V18.575C30.0448 18.1053 29.9851 17.615 29.9851 17.1108C29.9851 13.6568 32.7851 10.8568 36.2391 10.8568C37.9239 10.8568 39.4531 11.523 40.5776 12.6064C40.8073 12.5808 41.0407 12.5677 41.2772 12.5677C44.7312 12.5677 47.5312 15.3677 47.5312 18.8217C47.5312 22.21 44.8367 24.9689 41.4736 25.0726V25.0756H41.2772Z" fill="#44403F"/>
<rect x="20.428" y="20.1404" width="1.89019" height="9.91132" rx="0.945094" fill="#44403F"/>
</g>
<defs>
<clipPath id="clip0_1928_10188">
<rect x="0.997314" width="64.0054" height="64.0054" rx="32.0027" fill="white"/>
</clipPath>
</defs>
</svg>
