<svg width="120" height="120" viewBox="0 0 120 120" fill="none" xmlns="http://www.w3.org/2000/svg">
<g clip-path="url(#clip0_2078_31614)">
<circle cx="60" cy="60" r="60" fill="#292C2A"/>
<rect x="28.0632" y="36.3331" width="58.1816" height="53.6609" rx="6" fill="#BDBDBD"/>
<rect x="28.0632" y="36.3331" width="58.1816" height="49.3943" rx="6" fill="#FAFAFA"/>
<path d="M28.0632 42.3331C28.0632 39.0194 30.7495 36.3331 34.0632 36.3331H80.2449C83.5586 36.3331 86.2449 39.0194 86.2449 42.3331V54.072H28.0632V42.3331Z" fill="#BDBDBD"/>
<path d="M28.0632 42.3331C28.0632 39.0194 30.7495 36.3331 34.0632 36.3331H80.2449C83.5586 36.3331 86.2449 39.0194 86.2449 42.3331V52.1382H28.0632V42.3331Z" fill="#E53935"/>
<rect x="36.293" y="59.72" width="11.7509" height="6.79192" rx="2" fill="#16A75C"/>
<rect x="51.6611" y="59.72" width="11.7509" height="6.79192" rx="2" fill="#E0E0E0"/>
<rect x="36.293" y="70.0476" width="11.7509" height="6.79192" rx="2" fill="#E0E0E0"/>
<rect x="51.6611" y="70.0476" width="11.7509" height="6.79192" rx="2" fill="#E0E0E0"/>
<rect x="67.0291" y="70.0476" width="11.7509" height="6.79192" rx="2" fill="#E0E0E0"/>
<rect x="67.0291" y="59.72" width="11.7509" height="6.79192" rx="2" fill="#E0E0E0"/>
<circle cx="41.0515" cy="43.8031" r="4.75844" fill="#C62828"/>
<circle cx="74.0216" cy="43.8031" r="4.75844" fill="#C62828"/>
<rect x="38.4374" y="30" width="5.22804" height="14.9076" rx="2.61402" fill="#E0E0E0"/>
<rect x="71.4075" y="30" width="5.22804" height="14.9076" rx="2.61402" fill="#E0E0E0"/>
<rect x="38.4374" y="33.7354" width="5.22804" height="11.1722" rx="2.61402" fill="#BDBDBD"/>
<rect x="71.4075" y="33.7354" width="5.22804" height="11.1722" rx="2.61402" fill="#BDBDBD"/>
<path fill-rule="evenodd" clip-rule="evenodd" d="M64.8647 85.2483C64.0623 84.144 64.3072 82.5984 65.4115 81.796L84.4487 67.9647C85.553 67.1623 87.0987 67.4072 87.901 68.5115L87.9582 68.5902C87.2843 69.0798 87.1349 70.023 87.6245 70.6969C88.1141 71.3708 89.0573 71.5202 89.7312 71.0306L90.3114 71.8291C89.6375 72.3187 89.4881 73.2619 89.9777 73.9358C90.4673 74.6097 91.4105 74.7591 92.0844 74.2695L92.6645 75.0679C91.9906 75.5575 91.8412 76.5007 92.3309 77.1746C92.8205 77.8485 93.7637 77.9979 94.4376 77.5083L94.4948 77.587C95.2971 78.6914 95.0523 80.237 93.948 81.0393L74.9108 94.8707C73.8065 95.673 72.2608 95.4282 71.4585 94.3239L71.4013 94.2452C72.0752 93.7555 72.2246 92.8123 71.7349 92.1384C71.2453 91.4645 70.3021 91.3151 69.6282 91.8048L69.0481 91.0063C69.722 90.5167 69.8714 89.5735 69.3818 88.8996C68.8922 88.2257 67.9489 88.0763 67.275 88.5659L66.6949 87.7675C67.3688 87.2778 67.5182 86.3346 67.0286 85.6607C66.539 84.9868 65.5958 84.8374 64.9219 85.327L64.8647 85.2483Z" fill="#E88733"/>
<path fill-rule="evenodd" clip-rule="evenodd" d="M68.0002 83.5629C67.6644 82.2164 68.4839 80.8526 69.8304 80.5169L93.0434 74.7292C94.39 74.3935 95.7537 75.2129 96.0895 76.5595L96.1134 76.6555C95.2917 76.8603 94.7916 77.6925 94.9965 78.5143C95.2014 79.336 96.0336 79.836 96.8553 79.6312L97.0981 80.6048C96.2764 80.8096 95.7763 81.6419 95.9812 82.4636C96.1861 83.2853 97.0183 83.7853 97.84 83.5805L98.0827 84.5541C97.261 84.7589 96.761 85.5912 96.9659 86.4129C97.1707 87.2346 98.003 87.7346 98.8247 87.5298L98.8486 87.6257C99.1843 88.9723 98.3649 90.336 97.0184 90.6718L73.8054 96.4594C72.4588 96.7952 71.095 95.9757 70.7593 94.6292L70.7354 94.5332C71.5571 94.3283 72.0571 93.4961 71.8523 92.6744C71.6474 91.8527 70.8152 91.3526 69.9934 91.5575L69.7507 90.5839C70.5724 90.379 71.0725 89.5468 70.8676 88.7251C70.6627 87.9034 69.8305 87.4033 69.0088 87.6082L68.766 86.6346C69.5878 86.4297 70.0878 85.5975 69.8829 84.7758C69.678 83.9541 68.8458 83.454 68.0241 83.6589L68.0241 83.6589L68.0002 83.5629Z" fill="#FFCE24"/>
<rect x="72.1224" y="82.183" width="20.2815" height="12.0884" rx="2.094" transform="rotate(-14 72.1224 82.183)" stroke="#E7AF22" stroke-width="0.837598"/>
<line x1="85.9299" y1="78.3129" x2="89.057" y2="90.8549" stroke="#E7AF22" stroke-width="0.837598"/>
</g>
<defs>
<clipPath id="clip0_2078_31614">
<rect width="120" height="120" fill="white"/>
</clipPath>
</defs>
</svg>
