<svg width="80" height="80" viewBox="0 0 80 80" fill="none" xmlns="http://www.w3.org/2000/svg">
<rect x="2" y="2" width="76" height="76" rx="38" fill="#EF5350"/>
<path d="M30.6667 53.3333H49.3333C50.804 53.3333 52 52.1373 52 50.6666V32C52 30.5293 50.804 29.3333 49.3333 29.3333H46.6667V28C46.6667 27.2636 46.0697 26.6666 45.3333 26.6666C44.597 26.6666 44 27.2636 44 28V29.3333H36V28C36 27.2636 35.403 26.6666 34.6667 26.6666C33.9303 26.6666 33.3333 27.2636 33.3333 28V29.3333H30.6667C29.196 29.3333 28 30.5293 28 32V50.6666C28 52.1373 29.196 53.3333 30.6667 53.3333ZM44 46.1146C44.5206 46.6352 44.5206 47.4793 44 48C43.4794 48.5206 42.6353 48.5206 42.1147 48L40 45.8853L37.8853 48C37.3647 48.5206 36.5206 48.5206 36 48C35.4794 47.4793 35.4794 46.6352 36 46.1146L38.1147 44L36 41.8853C35.4794 41.3647 35.4794 40.5206 36 40C36.5206 39.4793 37.3647 39.4793 37.8853 40L40 42.1146L42.1147 40C42.6353 39.4793 43.4794 39.4793 44 40C44.5206 40.5206 44.5206 41.3647 44 41.8853L41.8853 44L44 46.1146ZM30.6667 34.6666C30.6667 33.9302 31.2636 33.3333 32 33.3333H48C48.7364 33.3333 49.3333 33.9302 49.3333 34.6666C49.3333 35.403 48.7364 36 48 36H32C31.2636 36 30.6667 35.403 30.6667 34.6666Z" fill="white"/>
<rect x="2" y="2" width="76" height="76" rx="38" stroke="white" stroke-width="4"/>
</svg>
