<svg width="80" height="80" viewBox="0 0 80 80" fill="none" xmlns="http://www.w3.org/2000/svg">
<rect x="2" y="2" width="76" height="76" rx="38" fill="#DD5E5E"/>
<path d="M30.6667 53.3334H49.3333C50.804 53.3334 52 52.1374 52 50.6667V32.0001C52 30.5294 50.804 29.3334 49.3333 29.3334H46.6667V28.0001C46.6667 27.2637 46.0697 26.6667 45.3333 26.6667C44.597 26.6667 44 27.2637 44 28.0001V29.3334H36V28.0001C36 27.2637 35.403 26.6667 34.6667 26.6667C33.9303 26.6667 33.3333 27.2637 33.3333 28.0001V29.3334H30.6667C29.196 29.3334 28 30.5294 28 32.0001V50.6667C28 52.1374 29.196 53.3334 30.6667 53.3334ZM44 46.1147C44.5206 46.6354 44.5206 47.4795 44 48.0001C43.4794 48.5207 42.6353 48.5207 42.1147 48.0001L40 45.8854L37.8853 48.0001C37.3647 48.5207 36.5206 48.5207 36 48.0001C35.4794 47.4795 35.4794 46.6354 36 46.1147L38.1147 44.0001L36 41.8854C35.4794 41.3648 35.4794 40.5207 36 40.0001C36.5206 39.4795 37.3647 39.4795 37.8853 40.0001L40 42.1147L42.1147 40.0001C42.6353 39.4795 43.4794 39.4795 44 40.0001C44.5206 40.5207 44.5206 41.3648 44 41.8854L41.8853 44.0001L44 46.1147ZM30.6667 34.6667C30.6667 33.9304 31.2636 33.3334 32 33.3334H48C48.7364 33.3334 49.3333 33.9304 49.3333 34.6667C49.3333 35.4031 48.7364 36.0001 48 36.0001H32C31.2636 36.0001 30.6667 35.4031 30.6667 34.6667Z" fill="white"/>
<rect x="2" y="2" width="76" height="76" rx="38" stroke="#1F2121" stroke-width="4"/>
</svg>
