<svg width="120" height="121" viewBox="0 0 120 121" fill="none" xmlns="http://www.w3.org/2000/svg">
<g clip-path="url(#clip0_1795_31221)">
<circle cx="60" cy="60.5" r="60" fill="#292C2A"/>
<rect x="28.0632" y="36.8331" width="58.1816" height="53.6609" rx="6" fill="#BDBDBD"/>
<rect x="28.0632" y="36.8331" width="58.1816" height="49.3943" rx="6" fill="#FAFAFA"/>
<path d="M28.0632 42.8331C28.0632 39.5194 30.7495 36.8331 34.0632 36.8331H80.2449C83.5586 36.8331 86.2449 39.5194 86.2449 42.8331V54.572H28.0632V42.8331Z" fill="#BDBDBD"/>
<path d="M28.0632 42.8331C28.0632 39.5194 30.7495 36.8331 34.0632 36.8331H80.2449C83.5586 36.8331 86.2449 39.5194 86.2449 42.8331V52.6382H28.0632V42.8331Z" fill="#E53935"/>
<rect x="36.293" y="60.22" width="11.7509" height="6.79192" rx="2" fill="#16A75C"/>
<rect x="51.6611" y="60.22" width="11.7509" height="6.79192" rx="2" fill="#E0E0E0"/>
<rect x="36.293" y="70.5476" width="11.7509" height="6.79192" rx="2" fill="#E0E0E0"/>
<rect x="51.6611" y="70.5476" width="11.7509" height="6.79192" rx="2" fill="#E0E0E0"/>
<rect x="67.0291" y="70.5476" width="11.7509" height="6.79192" rx="2" fill="#E0E0E0"/>
<rect x="67.0292" y="60.22" width="11.7509" height="6.79192" rx="2" fill="#E0E0E0"/>
<circle cx="41.0515" cy="44.3031" r="4.75844" fill="#C62828"/>
<circle cx="74.0216" cy="44.3031" r="4.75844" fill="#C62828"/>
<rect x="38.4374" y="30.5" width="5.22804" height="14.9076" rx="2.61402" fill="#E0E0E0"/>
<rect x="71.4075" y="30.5" width="5.22804" height="14.9076" rx="2.61402" fill="#E0E0E0"/>
<rect x="38.4374" y="34.2354" width="5.22804" height="11.1722" rx="2.61402" fill="#BDBDBD"/>
<rect x="71.4075" y="34.2354" width="5.22804" height="11.1722" rx="2.61402" fill="#BDBDBD"/>
<path d="M66.8236 73.0197C66.8236 71.3082 68.2111 69.9208 69.9226 69.9208H94.6527C96.3642 69.9208 97.7517 71.3082 97.7517 73.0197V91.3925C97.3827 93.0777 96.3642 94.4914 94.6527 94.4914H69.9226C68.2111 94.4914 67.1708 93.1207 66.8236 91.3925V73.0197Z" fill="#FF9500"/>
<path d="M66.8236 79.3254C66.8236 77.6139 68.2111 76.2264 69.9226 76.2264H76.4707C77.0711 76.2264 77.6586 76.4009 78.1617 76.7285L81.4529 78.8716C81.9561 79.1992 82.5435 79.3736 83.1439 79.3736H94.6527C96.3642 79.3736 97.7517 80.7611 97.7517 82.4726V91.0886C97.7517 91.2909 97.7345 91.4935 97.6846 91.6896C97.2903 93.2405 96.2627 94.4918 94.6527 94.4918H69.9226C68.312 94.4918 67.2891 93.2575 66.891 91.6909C66.841 91.494 66.8236 91.2905 66.8236 91.0872V79.3254Z" fill="#FF7500"/>
<path d="M65.5202 82.2717C65.2674 79.925 68.2111 79.1274 69.9226 79.1274H76.4707C77.0711 79.1274 77.6586 79.3019 78.1617 79.6295L81.4529 81.7726C81.9561 82.1002 82.5436 82.2746 83.144 82.2746H94.6527C96.3642 82.2746 99.2905 82.9927 98.8765 85.3682C98.4667 87.7193 97.7662 91.318 97.7519 91.3917C97.7514 91.394 97.7514 91.394 97.751 91.3963C97.4249 93.0448 96.363 94.4918 94.6527 94.4918H69.9226C68.234 94.4918 67.1987 93.1497 66.8379 91.4617C66.8281 91.416 66.8204 91.3718 66.8132 91.3256C66.7035 90.6156 65.7581 84.4811 65.5202 82.2717Z" fill="#FFA600"/>
</g>
<defs>
<clipPath id="clip0_1795_31221">
<rect width="120" height="120" fill="white" transform="translate(0 0.5)"/>
</clipPath>
</defs>
</svg>
