<svg width="46" height="46" viewBox="0 0 46 46" fill="none" xmlns="http://www.w3.org/2000/svg">
<circle cx="23.0006" cy="23.0093" r="23.0006" fill="#292C2A"/>
<g clip-path="url(#clip0_2603_460)">
<path d="M15.0757 27.1553C14.4225 26.7238 14.4225 25.7151 15.0757 25.2835L21.9153 20.7651C22.5882 20.3206 23.4407 20.3206 24.1136 20.7651L30.9532 25.2835C31.6064 25.7151 31.6064 26.7238 30.9531 27.1553L24.1136 31.6738C23.4407 32.1183 22.5882 32.1183 21.9153 31.6738L15.0757 27.1553Z" fill="#1E88E5"/>
<path d="M29.778 24.5071L24.1136 28.2492C23.4408 28.6937 22.5882 28.6937 21.9154 28.2492L16.251 24.5071L21.9154 20.765C22.5882 20.3205 23.4408 20.3205 24.1136 20.765L29.778 24.5071Z" fill="#1565C0"/>
<path d="M15.0757 20.7308C14.4225 20.2992 14.4225 19.2905 15.0757 18.859L21.9153 14.3405C22.5882 13.896 23.4407 13.896 24.1136 14.3405L30.9532 18.859C31.6064 19.2905 31.6064 20.2992 30.9531 20.7308L24.1136 25.2492C23.4407 25.6937 22.5882 25.6937 21.9153 25.2492L15.0757 20.7308Z" fill="#16A75C"/>
</g>
<defs>
<clipPath id="clip0_2603_460">
<rect width="18" height="18" fill="white" transform="translate(14.0005 14.0071)"/>
</clipPath>
</defs>
</svg>
