<svg width="46" height="47" viewBox="0 0 46 47" fill="none" xmlns="http://www.w3.org/2000/svg">
<circle cx="23.0006" cy="23.0082" r="23.0006" fill="#FAFAFA"/>
<g clip-path="url(#clip0_1928_10099)">
<rect x="29.5006" y="20.5082" width="11.947" height="13" rx="3" transform="rotate(90 29.5006 20.5082)" fill="#1E88E5"/>
<rect x="27.5255" y="20.5082" width="9.92915" height="9.04984" rx="3" transform="rotate(90 27.5255 20.5082)" fill="#1565C0"/>
<rect x="32.0006" y="17.5082" width="10.5226" height="18" rx="3" transform="rotate(90 32.0006 17.5082)" fill="#16A75C"/>
<g clip-path="url(#clip1_1928_10099)">
<path fill-rule="evenodd" clip-rule="evenodd" d="M23.2506 24.5082C22.6983 24.5082 22.2506 24.0605 22.2506 23.5082L22.2506 14.5082C22.2506 13.9559 22.6983 13.5082 23.2506 13.5082C23.8029 13.5082 24.2506 13.9559 24.2506 14.5082L24.2506 23.5082C24.2506 24.0605 23.8029 24.5082 23.2506 24.5082Z" fill="white"/>
<path fill-rule="evenodd" clip-rule="evenodd" d="M18.5565 20.4522C18.9288 20.0799 19.5324 20.0799 19.9047 20.4522L23.7996 24.3472C24.1719 24.7194 24.1719 25.323 23.7996 25.6953C23.4273 26.0676 22.8237 26.0676 22.4515 25.6953L18.5565 21.8004C18.1842 21.4281 18.1842 20.8245 18.5565 20.4522Z" fill="white"/>
<path fill-rule="evenodd" clip-rule="evenodd" d="M22.4514 25.6953C22.0791 25.323 22.0791 24.7194 22.4514 24.3471L26.3464 20.4522C26.7186 20.0799 27.3222 20.0799 27.6945 20.4522C28.0668 20.8244 28.0668 21.428 27.6945 21.8003L23.7996 25.6953C23.4273 26.0675 22.8237 26.0675 22.4514 25.6953Z" fill="white"/>
<path fill-rule="evenodd" clip-rule="evenodd" d="M23.2506 13.5082C22.6983 13.5082 22.2506 13.9559 22.2506 14.5082L22.2506 17.5082L24.2506 17.5082L24.2506 14.5082C24.2506 13.9559 23.8029 13.5082 23.2506 13.5082Z" fill="#16A75C"/>
</g>
</g>
<defs>
<clipPath id="clip0_1928_10099">
<rect width="19" height="18" fill="white" transform="translate(32.0006 13.5082) rotate(90)"/>
</clipPath>
<clipPath id="clip1_1928_10099">
<rect width="13.125" height="11" fill="white" transform="translate(17.5006 26.6332) rotate(-90)"/>
</clipPath>
</defs>
</svg>
