<svg width="46" height="47" viewBox="0 0 46 47" fill="none" xmlns="http://www.w3.org/2000/svg">
<circle cx="23.0006" cy="23.0071" r="23.0006" fill="#FAFAFA"/>
<g clip-path="url(#clip0_1928_10078)">
<path d="M14.0006 24.0071C14.0006 22.3502 15.3438 21.0071 17.0006 21.0071H23.0006C24.6575 21.0071 26.0006 22.3502 26.0006 24.0071V26.8071C26.0006 28.4639 24.6575 29.8071 23.0006 29.8071H17.6006L14.0006 32.0071V24.0071Z" fill="#1E88E5"/>
<path d="M18.0099 21.0284H26.0006V26.9964H20.4099C19.0844 26.9964 18.0099 25.9219 18.0099 24.5964V21.0284Z" fill="#1565C0"/>
<path d="M32.0006 17.0071C32.0006 15.3502 30.6575 14.0071 29.0006 14.0071H22.0006C20.3438 14.0071 19.0006 15.3502 19.0006 17.0071V23.0071C19.0006 24.6639 20.3438 26.0071 22.0006 26.0071H28.1006L32.0006 29.0071V17.0071Z" fill="#16A75C"/>
</g>
<defs>
<clipPath id="clip0_1928_10078">
<rect width="18" height="18" fill="white" transform="translate(14.0006 14.0071)"/>
</clipPath>
</defs>
</svg>
