<svg width="120" height="121" viewBox="0 0 120 121" fill="none" xmlns="http://www.w3.org/2000/svg">
<rect y="0.5" width="120" height="120" rx="60" fill="#FAFAFA"/>
<rect x="30.7452" y="50.7778" width="58.5097" height="46.3417" rx="5.69146" fill="#F3832E"/>
<path d="M30.7452 56.4693C30.7452 53.3259 33.2933 50.7778 36.4366 50.7778H61.3512V97.1195H36.4366C33.2933 97.1195 30.7452 94.5714 30.7452 91.4281V56.4693Z" fill="#FCB73F"/>
<path d="M45.3063 54.506C45.7647 54.506 46.1396 54.8781 46.1057 55.3353C46.0175 56.5255 45.7399 57.6959 45.2819 58.8019C44.7177 60.1638 43.8908 61.4014 42.8484 62.4438C41.806 63.4862 40.5685 64.313 39.2065 64.8772C38.1006 65.3353 36.9302 65.6129 35.7399 65.701C35.2828 65.7349 34.9106 65.3601 34.9106 64.9017V56.1661C34.9106 55.2492 35.6539 54.506 36.5707 54.506H45.3063Z" fill="#FFD878"/>
<rect x="45.9359" y="69.6459" width="30.7817" height="15.9981" rx="2.84573" fill="#E66D2B"/>
<path d="M80.6622 50.7778H61.3269V70.5569C61.3269 70.5569 62.3109 62.1556 68.4122 56.9103C74.5134 51.665 80.6622 50.7778 80.6622 50.7778Z" fill="#E66D2B"/>
<rect x="45.9359" y="68.816" width="30.7817" height="15.3693" rx="2.84573" fill="#FFDD86"/>
<path d="M45.9359 71.6617C45.9359 70.0901 47.21 68.816 48.7817 68.816H61.3268V84.1853H48.7817C47.21 84.1853 45.9359 82.9113 45.9359 81.3396V71.6617Z" fill="#FFECBA"/>
<circle cx="50.0301" cy="76.8512" r="1.39637" fill="#E66C2B"/>
<circle cx="72.9394" cy="76.8512" r="1.39637" fill="#E66C2B"/>
<path fill-rule="evenodd" clip-rule="evenodd" d="M40.0111 44.9097C40.0111 33.2956 49.4263 23.8804 61.0404 23.8804C72.6546 23.8804 82.0697 33.2956 82.0697 44.9097V50.7779H76.733V45.6028C76.733 36.936 69.7072 29.9103 61.0405 29.9103C52.3737 29.9103 45.3479 36.936 45.3479 45.6028V50.7779H40.0111V44.9097Z" fill="#555480"/>
<path fill-rule="evenodd" clip-rule="evenodd" d="M37.9303 44.9097C37.9303 33.2956 47.3454 23.8804 58.9596 23.8804C70.5737 23.8804 79.9889 33.2956 79.9889 44.9097V50.7779H74.6521V45.6028C74.6521 36.936 67.6264 29.9103 58.9596 29.9103C50.2929 29.9103 43.2671 36.936 43.2671 45.6028V50.7779H37.9303V44.9097Z" fill="#ADAEE2"/>
<path fill-rule="evenodd" clip-rule="evenodd" d="M53.0422 31.0643C47.3085 33.4004 43.2671 39.0296 43.2671 45.6028V50.7779H40.4204V45.6028C40.4204 37.3792 47.7786 31.0643 53.0422 31.0643Z" fill="#E7E6FC" fill-opacity="0.5"/>
<g clip-path="url(#clip0_1848_16250)">
<circle cx="99" cy="99.5" r="21" fill="#1E88E5"/>
<g clip-path="url(#clip1_1848_16250)">
<path d="M99 99.4999C102.156 99.4999 104.714 96.9419 104.714 93.7856C104.714 90.6294 102.156 88.0714 99 88.0714C95.8438 88.0714 93.2857 90.6294 93.2857 93.7856C93.2857 96.9419 95.8438 99.4999 99 99.4999ZM96.9598 101.643C92.5625 101.643 89 105.205 89 109.603C89 110.335 89.5938 110.928 90.3259 110.928H107.674C108.406 110.928 109 110.335 109 109.603C109 105.205 105.438 101.643 101.04 101.643H96.9598Z" fill="white"/>
</g>
</g>
<defs>
<clipPath id="clip0_1848_16250">
<rect width="42" height="42" fill="white" transform="translate(78 78.5)"/>
</clipPath>
<clipPath id="clip1_1848_16250">
<rect width="20" height="22.8571" fill="white" transform="translate(89 88.0714)"/>
</clipPath>
</defs>
</svg>
