<svg width="44" height="44" viewBox="0 0 44 44" fill="none" xmlns="http://www.w3.org/2000/svg">
<rect width="44" height="44" rx="22" fill="#FFA600"/>
<g clip-path="url(#clip0_1747_16750)">
<g clip-path="url(#clip1_1747_16750)">
<path d="M11.0184 21.7869C10.6672 21.2249 10.8382 20.4846 11.4002 20.1334L24.969 11.6547C25.531 11.3035 26.2713 11.4744 26.6225 12.0364L27.5826 13.5729C27.8074 13.9326 27.8456 14.4614 27.7062 15.076C27.5228 15.8844 27.4517 17.0673 28.1391 18.1674C28.8229 19.2616 29.9071 19.7138 30.7116 19.9017C31.3317 20.0466 31.7945 20.3134 32.0207 20.6752L32.9816 22.213C33.3328 22.775 33.1618 23.5154 32.5998 23.8666L19.031 32.3453C18.469 32.6965 17.7287 32.5255 17.3775 31.9635L16.4436 30.4689C16.209 30.0936 16.1806 29.535 16.3364 28.8775C16.5285 28.0664 16.5866 26.9143 15.8982 25.8128C15.2082 24.7085 14.143 24.2548 13.3287 24.0714C12.6724 23.9236 12.1847 23.6534 11.9508 23.279L11.0184 21.7869Z" stroke="white" stroke-width="1.6"/>
<line x1="21.3628" y1="15.3873" x2="27.6641" y2="25.4715" stroke="white" stroke-width="2" stroke-linecap="round" stroke-dasharray="3 4"/>
</g>
</g>
<defs>
<clipPath id="clip0_1747_16750">
<rect width="24" height="24" fill="white" transform="translate(5.46439 18.1824) rotate(-32)"/>
</clipPath>
<clipPath id="clip1_1747_16750">
<rect width="20" height="16" fill="white" transform="translate(9.28017 20.5148) rotate(-32)"/>
</clipPath>
</defs>
</svg>
