<svg width="46" height="47" viewBox="0 0 46 47" fill="none" xmlns="http://www.w3.org/2000/svg">
<circle cx="23.0006" cy="23.0093" r="23.0006" fill="#FAFAFA"/>
<g clip-path="url(#clip0_1928_10000)">
<path d="M15.0759 27.1575C14.4226 26.726 14.4226 25.7173 15.0759 25.2857L21.9155 20.7673C22.5883 20.3228 23.4409 20.3228 24.1137 20.7673L30.9533 25.2857C31.6065 25.7173 31.6065 26.726 30.9533 27.1575L24.1137 31.676C23.4409 32.1205 22.5883 32.1205 21.9155 31.676L15.0759 27.1575Z" fill="#1E88E5"/>
<path d="M29.7781 24.5093L24.1137 28.2514C23.4409 28.6959 22.5883 28.6959 21.9155 28.2514L16.2511 24.5093L21.9155 20.7672C22.5883 20.3227 23.4409 20.3227 24.1137 20.7672L29.7781 24.5093Z" fill="#1565C0"/>
<path d="M15.0759 20.7329C14.4226 20.3014 14.4226 19.2927 15.0759 18.8612L21.9155 14.3427C22.5883 13.8982 23.4409 13.8982 24.1137 14.3427L30.9533 18.8612C31.6065 19.2927 31.6065 20.3014 30.9533 20.7329L24.1137 25.2514C23.4409 25.6959 22.5883 25.6959 21.9155 25.2514L15.0759 20.7329Z" fill="#16A75C"/>
</g>
<defs>
<clipPath id="clip0_1928_10000">
<rect width="18" height="18" fill="white" transform="translate(14.0006 14.0093)"/>
</clipPath>
</defs>
</svg>
