<svg width="80" height="80" viewBox="0 0 80 80" fill="none" xmlns="http://www.w3.org/2000/svg">
    <rect x="2" y="2" width="76" height="76" rx="38" fill="#FF9500" />
    <g clip-path="url(#clip0_1782_25819)">
        <path
            d="M40 26C32.272 26 26 32.272 26 40C26 47.728 32.272 54 40 54C47.728 54 54 47.728 54 40C54 32.272 47.728 26 40 26ZM40 41.4C39.23 41.4 38.6 40.77 38.6 40V34.4C38.6 33.63 39.23 33 40 33C40.77 33 41.4 33.63 41.4 34.4V40C41.4 40.77 40.77 41.4 40 41.4ZM41.4 47H38.6V44.2H41.4V47Z"
            fill="white" />
    </g>
    <rect x="2" y="2" width="76" height="76" rx="38" stroke="#1F2121" stroke-width="4" />
    <defs>
        <clipPath id="clip0_1782_25819">
            <rect width="28" height="28" fill="white" transform="translate(26 26)" />
        </clipPath>
    </defs>
</svg>