<svg width="120" height="120" viewBox="0 0 120 120" fill="none" xmlns="http://www.w3.org/2000/svg">
<rect width="120" height="120" rx="60" fill="#1F2121"/>
<path d="M36.3179 30.1781C34.6895 30.1781 33.1278 30.825 31.9764 31.9764C30.8249 33.1278 30.1781 34.6895 30.1781 36.3179V46.8433C30.1781 47.5412 29.9008 48.2105 29.4074 48.7039C28.9139 49.1974 28.2446 49.4746 27.5467 49.4746C26.8488 49.4746 26.1796 49.1974 25.6861 48.7039C25.1926 48.2105 24.9154 47.5412 24.9154 46.8433V36.3179C24.9154 33.2938 26.1167 30.3935 28.2551 28.2551C30.3935 26.1167 33.2937 24.9154 36.3179 24.9154H46.8433C47.5411 24.9154 48.2104 25.1926 48.7039 25.6861C49.1974 26.1796 49.4746 26.8489 49.4746 27.5468C49.4746 28.2446 49.1974 28.9139 48.7039 29.4074C48.2104 29.9009 47.5411 30.1781 46.8433 30.1781H36.3179ZM83.6821 30.1781C87.0713 30.1781 89.8219 32.9287 89.8219 36.3179V46.8433C89.8219 47.5412 90.0991 48.2105 90.5926 48.7039C91.0861 49.1974 91.7554 49.4746 92.4533 49.4746C93.1511 49.4746 93.8204 49.1974 94.3139 48.7039C94.8074 48.2105 95.0846 47.5412 95.0846 46.8433V36.3179C95.0846 34.8205 94.7897 33.3378 94.2166 31.9544C93.6436 30.5709 92.8037 29.3139 91.7449 28.2551C90.6861 27.1963 89.4291 26.3564 88.0457 25.7834C86.6622 25.2103 85.1795 24.9154 83.6821 24.9154H73.1567C72.4588 24.9154 71.7896 25.1926 71.2961 25.6861C70.8026 26.1796 70.5254 26.8489 70.5254 27.5468C70.5254 28.2446 70.8026 28.9139 71.2961 29.4074C71.7896 29.9009 72.4588 30.1781 73.1567 30.1781H83.6821ZM30.1781 83.6821C30.1781 87.0713 32.9287 89.8219 36.3179 89.8219H46.8433C47.5411 89.8219 48.2104 90.0992 48.7039 90.5926C49.1974 91.0861 49.4746 91.7554 49.4746 92.4533C49.4746 93.1512 49.1974 93.8205 48.7039 94.3139C48.2104 94.8074 47.5411 95.0846 46.8433 95.0846H36.3179C34.8205 95.0846 33.3377 94.7897 31.9543 94.2167C30.5709 93.6436 29.3139 92.8037 28.2551 91.7449C27.1963 90.6861 26.3564 89.4291 25.7833 88.0457C25.2103 86.6623 24.9154 85.1795 24.9154 83.6821V73.1567C24.9154 72.4589 25.1926 71.7896 25.6861 71.2961C26.1796 70.8026 26.8488 70.5254 27.5467 70.5254C28.2446 70.5254 28.9139 70.8026 29.4074 71.2961C29.9008 71.7896 30.1781 72.4589 30.1781 73.1567V83.6821ZM83.6821 89.8219C85.3105 89.8219 86.8722 89.1751 88.0236 88.0236C89.175 86.8722 89.8219 85.3105 89.8219 83.6821V73.1567C89.8219 72.4589 90.0991 71.7896 90.5926 71.2961C91.0861 70.8026 91.7554 70.5254 92.4533 70.5254C93.1511 70.5254 93.8204 70.8026 94.3139 71.2961C94.8074 71.7896 95.0846 72.4589 95.0846 73.1567V83.6821C95.0846 85.1795 94.7897 86.6623 94.2166 88.0457C93.6436 89.4291 92.8037 90.6861 91.7449 91.7449C90.6861 92.8037 89.4291 93.6436 88.0457 94.2167C86.6622 94.7897 85.1795 95.0846 83.6821 95.0846H73.1567C72.4588 95.0846 71.7896 94.8074 71.2961 94.3139C70.8026 93.8205 70.5254 93.1512 70.5254 92.4533C70.5254 91.7554 70.8026 91.0861 71.2961 90.5926C71.7896 90.0992 72.4588 89.8219 73.1567 89.8219H83.6821Z" fill="#434343"/>
<g clip-path="url(#clip0_1849_20525)">
<rect width="70" height="34" transform="translate(25 61)" fill="url(#paint0_linear_1849_20525)"/>
<path fill-rule="evenodd" clip-rule="evenodd" d="M36.1222 74.7669C34.1581 73.8924 33.2748 71.5912 34.1493 69.6271L49.2242 35.7682C50.0987 33.8041 52.3999 32.9207 54.364 33.7952L54.504 33.8576C53.9703 35.0561 54.5094 36.4604 55.7079 36.994C56.9065 37.5277 58.3107 36.9886 58.8444 35.79L60.2645 36.4223C59.7308 37.6209 60.2699 39.0251 61.4684 39.5588C62.667 40.0924 64.0713 39.5534 64.6049 38.3548L66.025 38.9871C65.4914 40.1856 66.0304 41.5899 67.229 42.1235C68.4276 42.6572 69.8318 42.1181 70.3654 40.9196L70.5055 40.9819C72.4696 41.8563 73.3529 44.1575 72.4784 46.1216L57.4034 79.9805C56.529 81.9447 54.2278 82.828 52.2637 81.9535L52.1238 81.8912L52.1238 81.8912C52.6574 80.6926 52.1184 79.2884 50.9198 78.7547C49.7213 78.2211 48.317 78.7601 47.7834 79.9587L47.7834 79.9587L46.3632 79.3264L46.3632 79.3264C46.8969 78.1278 46.3578 76.7236 45.1593 76.19C43.9607 75.6563 42.5565 76.1954 42.0228 77.3939L42.0228 77.394L40.6027 76.7617C41.1363 75.5631 40.5973 74.1589 39.3987 73.6252C38.2001 73.0916 36.7959 73.6306 36.2622 74.8292L36.1222 74.7669Z" fill="#444545"/>
<path fill-rule="evenodd" clip-rule="evenodd" d="M39.0718 69.9986C37.5534 68.4263 37.5972 65.9207 39.1695 64.4023L66.2751 38.2267C67.8475 36.7083 70.3531 36.752 71.8715 38.3244L71.9797 38.4365C71.0201 39.3631 70.9935 40.8921 71.9201 41.8516C72.8466 42.8111 74.3756 42.8378 75.3351 41.9112L76.433 43.048C75.4735 43.9746 75.4468 45.5036 76.3734 46.4631C77.3 47.4227 78.829 47.4493 79.7885 46.5228L80.8864 47.6596C79.9268 48.5862 79.9002 50.1152 80.8268 51.0747C81.7533 52.0342 83.2823 52.0609 84.2418 51.1343L84.3501 51.2464C85.8685 52.8187 85.8248 55.3243 84.2524 56.8427L57.1468 83.0183C55.5744 84.5367 53.0689 84.493 51.5505 82.9206L51.4422 82.8085C52.4017 81.8819 52.4283 80.3529 51.5017 79.3934C50.5752 78.4339 49.0462 78.4072 48.0867 79.3338L46.9889 78.197L46.9889 78.197C47.9484 77.2704 47.9751 75.7414 47.0485 74.7819C46.1219 73.8224 44.5929 73.7957 43.6334 74.7223L43.6334 74.7223L42.5356 73.5854L42.5356 73.5854C43.4951 72.6588 43.5218 71.1298 42.5952 70.1703C41.6686 69.2108 40.1396 69.1841 39.1801 70.1107L39.1801 70.1107L39.0718 69.9986Z" fill="#666968"/>
<rect x="43.608" y="64.87" width="31.9447" height="19.0399" rx="3.29818" transform="rotate(-44 43.608 64.87)" stroke="#4F5050" stroke-width="1.31927"/>
<line x1="59.3942" y1="48.7169" x2="73.5369" y2="63.3621" stroke="#4F5050" stroke-width="1.31927"/>
<rect x="54.7405" y="62.7991" width="7.15083" height="7.15083" rx="2" fill="#1F2121"/>
<rect x="34.9305" y="57.3872" width="7.44173" height="7.44173" rx="2" fill="#1F2121"/>
<rect x="44.2435" y="59.0782" width="7.44173" height="7.44173" rx="2" fill="#1F2121"/>
<rect x="35.8771" y="69.2332" width="12.0873" height="12.0873" rx="2" fill="#1F2121"/>
<rect x="65.2491" y="67.7356" width="6.296" height="6.296" rx="2" fill="#1F2121"/>
<rect x="66.5949" y="57.8744" width="6.46744" height="6.46744" rx="2" fill="#1F2121"/>
<rect x="49.5614" y="76.6735" width="8.35828" height="8.35828" rx="2" fill="#1F2121"/>
<rect x="69.8245" y="71.9938" width="3.89114" height="3.89114" rx="1" fill="#3C3C3C"/>
<rect x="68.1039" y="83.5369" width="3.44122" height="3.44122" rx="1" fill="#3C3C3C"/>
<rect x="51.4834" y="78.3894" width="4.92639" height="4.92639" rx="1" fill="#434444"/>
<rect x="64.8872" y="78" width="3.50986" height="3.50986" rx="1" fill="#3C3C3C"/>
<rect x="51.4834" y="86.4426" width="3.25714" height="3.25714" rx="1" fill="#3C3C3C"/>
<rect x="38.6841" y="72.0402" width="6.4733" height="6.4733" rx="1" fill="#434444"/>
<rect x="33.914" y="78.6759" width="3.28921" height="3.28921" rx="1" fill="#3C3C3C"/>
<rect x="42.3722" y="80.8527" width="3.74261" height="3.74261" rx="1" fill="#3C3C3C"/>
</g>
<g clip-path="url(#clip1_1849_20525)">
<path fill-rule="evenodd" clip-rule="evenodd" d="M36.1222 74.7669C34.1581 73.8924 33.2748 71.5912 34.1493 69.6271L49.2242 35.7682C50.0987 33.8041 52.3999 32.9207 54.364 33.7952L54.504 33.8576C53.9703 35.0561 54.5094 36.4604 55.7079 36.994C56.9065 37.5277 58.3107 36.9886 58.8444 35.79L60.2645 36.4223C59.7308 37.6209 60.2699 39.0251 61.4684 39.5588C62.667 40.0924 64.0713 39.5534 64.6049 38.3548L66.025 38.9871C65.4914 40.1856 66.0304 41.5899 67.229 42.1235C68.4276 42.6572 69.8318 42.1181 70.3654 40.9196L70.5055 40.9819C72.4696 41.8563 73.3529 44.1575 72.4784 46.1216L57.4034 79.9805C56.529 81.9447 54.2278 82.828 52.2637 81.9535L52.1238 81.8912L52.1238 81.8912C52.6574 80.6926 52.1184 79.2884 50.9198 78.7547C49.7213 78.2211 48.317 78.7601 47.7834 79.9587L47.7834 79.9587L46.3632 79.3264L46.3632 79.3264C46.8969 78.1278 46.3578 76.7236 45.1593 76.19C43.9607 75.6563 42.5565 76.1954 42.0228 77.3939L42.0228 77.394L40.6027 76.7617C41.1363 75.5631 40.5973 74.1589 39.3987 73.6252C38.2001 73.0916 36.7959 73.6306 36.2622 74.8292L36.1222 74.7669Z" fill="#E88733"/>
<path fill-rule="evenodd" clip-rule="evenodd" d="M39.0718 69.9986C37.5534 68.4263 37.5972 65.9207 39.1695 64.4023L66.2751 38.2267C67.8475 36.7083 70.3531 36.752 71.8715 38.3244L71.9797 38.4365C71.0201 39.3631 70.9935 40.8921 71.9201 41.8516C72.8466 42.8111 74.3756 42.8378 75.3351 41.9112L76.433 43.048C75.4735 43.9746 75.4468 45.5036 76.3734 46.4631C77.3 47.4227 78.829 47.4493 79.7885 46.5228L80.8864 47.6596C79.9268 48.5862 79.9002 50.1152 80.8268 51.0747C81.7533 52.0342 83.2823 52.0609 84.2418 51.1343L84.3501 51.2464C85.8685 52.8187 85.8248 55.3243 84.2524 56.8427L57.1468 83.0183C55.5744 84.5367 53.0689 84.493 51.5505 82.9206L51.4422 82.8085C52.4017 81.8819 52.4283 80.3529 51.5017 79.3934C50.5752 78.4339 49.0462 78.4072 48.0867 79.3338L46.9889 78.197L46.9889 78.197C47.9484 77.2704 47.9751 75.7414 47.0485 74.7819C46.1219 73.8224 44.5929 73.7957 43.6334 74.7223L43.6334 74.7223L42.5356 73.5854L42.5356 73.5854C43.4951 72.6588 43.5218 71.1298 42.5952 70.1703C41.6686 69.2108 40.1396 69.1841 39.1801 70.1107L39.1801 70.1107L39.0718 69.9986Z" fill="#FFCE24"/>
<rect x="43.608" y="64.87" width="31.9447" height="19.0399" rx="3.29818" transform="rotate(-44 43.608 64.87)" stroke="#E7AF22" stroke-width="1.31927"/>
<line x1="59.3942" y1="48.7169" x2="73.5369" y2="63.3621" stroke="#E7AF22" stroke-width="1.31927"/>
</g>
<rect x="24.9153" y="60.0144" width="70.1692" height="29.9007" fill="url(#paint1_linear_1849_20525)"/>
<line x1="25.9153" y1="60" x2="94.0846" y2="60" stroke="#16A75C" stroke-width="2" stroke-linecap="round"/>
<defs>
<linearGradient id="paint0_linear_1849_20525" x1="35" y1="0" x2="35" y2="34" gradientUnits="userSpaceOnUse">
<stop stop-color="#20A95A" stop-opacity="0.03"/>
<stop offset="1" stop-color="#16A75C" stop-opacity="0"/>
</linearGradient>
<linearGradient id="paint1_linear_1849_20525" x1="60" y1="60.0144" x2="60" y2="89.9151" gradientUnits="userSpaceOnUse">
<stop stop-color="#20A95A" stop-opacity="0.13"/>
<stop offset="1" stop-color="#16A75C" stop-opacity="0"/>
</linearGradient>
<clipPath id="clip0_1849_20525">
<rect width="70" height="34" fill="white" transform="translate(25 61)"/>
</clipPath>
<clipPath id="clip1_1849_20525">
<rect width="74" height="36" fill="white" transform="translate(23 25)"/>
</clipPath>
</defs>
</svg>
