<svg width="153" height="23" viewBox="0 0 153 23" fill="none" xmlns="http://www.w3.org/2000/svg">
<path d="M4.39229 3.70928H0.886566V0.660829H11.2513V3.70928H7.74559V22H4.39229V3.70928ZM12.8748 0.660829H16.2281V22H12.8748V0.660829ZM23.4646 22.3048C21.8591 22.3048 20.6296 21.8476 19.776 20.933C18.9428 20.0185 18.5262 18.728 18.5262 17.0615V5.59932C18.5262 3.93284 18.9428 2.64232 19.776 1.72779C20.6296 0.813252 21.8591 0.355984 23.4646 0.355984C25.0702 0.355984 26.2895 0.813252 27.1228 1.72779C27.9764 2.64232 28.4031 3.93284 28.4031 5.59932V7.85518H25.2327V5.38593C25.2327 4.06494 24.6739 3.40444 23.5561 3.40444C22.4383 3.40444 21.8794 4.06494 21.8794 5.38593V17.3054C21.8794 18.6061 22.4383 19.2564 23.5561 19.2564C24.6739 19.2564 25.2327 18.6061 25.2327 17.3054V14.0435H28.4031V17.0615C28.4031 18.728 27.9764 20.0185 27.1228 20.933C26.2895 21.8476 25.0702 22.3048 23.4646 22.3048ZM30.4094 0.660829H33.7627V9.65377L38.0305 0.660829H41.3838L37.3904 8.49535L41.4448 22H37.9391L35.104 12.4888L33.7627 15.202V22H30.4094V0.660829ZM43.0319 0.660829H52.1773V3.70928H46.3852V9.34892H50.9884V12.3974H46.3852V18.9515H52.1773V22H43.0319V0.660829ZM56.728 3.70928H53.2223V0.660829H63.587V3.70928H60.0813V22H56.728V3.70928ZM74.4522 22.3048C72.8263 22.3048 71.5968 21.8476 70.7635 20.933C69.9303 19.9982 69.5137 18.667 69.5137 16.9396V15.7202H72.6841V17.1834C72.6841 18.5654 73.2633 19.2564 74.4217 19.2564C74.9907 19.2564 75.4175 19.0938 75.702 18.7686C76.0069 18.4231 76.1593 17.8744 76.1593 17.1225C76.1593 16.2283 75.9561 15.4458 75.5496 14.7752C75.1431 14.0842 74.3912 13.2611 73.2938 12.3059C71.9118 11.0865 70.9464 9.9891 70.3977 9.01359C69.849 8.01776 69.5746 6.9 69.5746 5.66029C69.5746 3.97348 70.0014 2.67281 70.855 1.75827C71.7086 0.823414 72.9483 0.355984 74.5741 0.355984C76.1796 0.355984 77.3888 0.823414 78.2018 1.75827C79.035 2.67281 79.4516 3.9938 79.4516 5.72126V6.60531H76.2812V5.50787C76.2812 4.77624 76.139 4.24784 75.8545 3.92267C75.5699 3.57718 75.1533 3.40444 74.6046 3.40444C73.4868 3.40444 72.9279 4.08526 72.9279 5.4469C72.9279 6.21918 73.1312 6.94064 73.5376 7.6113C73.9644 8.28196 74.7265 9.09488 75.824 10.0501C77.2263 11.2694 78.1916 12.3771 78.72 13.3729C79.2484 14.3687 79.5126 15.5373 79.5126 16.8786C79.5126 18.6264 79.0757 19.9677 78.2018 20.9026C77.3482 21.8374 76.0983 22.3048 74.4522 22.3048ZM86.1604 22.3048C84.5548 22.3048 83.3253 21.8476 82.4717 20.933C81.6385 20.0185 81.2219 18.728 81.2219 17.0615V5.59932C81.2219 3.93284 81.6385 2.64232 82.4717 1.72779C83.3253 0.813252 84.5548 0.355984 86.1604 0.355984C87.7659 0.355984 88.9853 0.813252 89.8185 1.72779C90.6721 2.64232 91.0989 3.93284 91.0989 5.59932V7.85518H87.9285V5.38593C87.9285 4.06494 87.3696 3.40444 86.2518 3.40444C85.134 3.40444 84.5752 4.06494 84.5752 5.38593V17.3054C84.5752 18.6061 85.134 19.2564 86.2518 19.2564C87.3696 19.2564 87.9285 18.6061 87.9285 17.3054V14.0435H91.0989V17.0615C91.0989 18.728 90.6721 20.0185 89.8185 20.933C88.9853 21.8476 87.7659 22.3048 86.1604 22.3048ZM95.6963 0.660829H100.239L103.714 22H100.36L99.7507 17.7627V17.8236H95.9402L95.3305 22H92.2211L95.6963 0.660829ZM99.3544 14.9276L97.8607 4.37994H97.7997L96.3365 14.9276H99.3544ZM105.341 0.660829H109.547L112.809 13.4338H112.87V0.660829H115.858V22H112.413L108.389 6.42241H108.328V22H105.341V0.660829ZM118.35 0.660829H122.557L125.819 13.4338H125.88V0.660829H128.867V22H125.423L121.399 6.42241H121.338V22H118.35V0.660829ZM131.36 0.660829H140.505V3.70928H134.713V9.34892H139.316V12.3974H134.713V18.9515H140.505V22H131.36V0.660829ZM142.434 0.660829H147.403C149.131 0.660829 150.391 1.06729 151.183 1.88021C151.976 2.67281 152.372 3.90235 152.372 5.56884V6.87967C152.372 9.09488 151.64 10.4972 150.177 11.0865V11.1475C150.99 11.3914 151.559 11.8893 151.884 12.6412C152.23 13.3932 152.403 14.3992 152.403 15.6592V19.4088C152.403 20.0185 152.423 20.5164 152.463 20.9026C152.504 21.2684 152.606 21.6342 152.768 22H149.354C149.232 21.6545 149.151 21.3293 149.11 21.0245C149.07 20.7196 149.049 20.1709 149.049 19.3783V15.4763C149.049 14.5008 148.887 13.82 148.561 13.4338C148.257 13.0477 147.718 12.8546 146.946 12.8546H145.787V22H142.434V0.660829ZM147.007 9.80619C147.677 9.80619 148.175 9.63344 148.501 9.28795C148.846 8.94246 149.019 8.36325 149.019 7.55033V5.90417C149.019 5.13189 148.876 4.57301 148.592 4.22752C148.328 3.88203 147.901 3.70928 147.312 3.70928H145.787V9.80619H147.007Z" fill="#424242"/>
</svg>
